HIERARCHY
ROOT Hips
{
	OFFSET -3.958830 18.904000 13.208200
	CHANNELS 6 Xposition Yposition Zposition Zrotation Yrotation Xrotation 
	JOINT LHipJoint
	{
		OFFSET 0.000000 0.000000 0.000000
		CHANNELS 3 Zrotation Yrotation Xrotation
		JOINT LeftUpLeg
		{
			OFFSET 1.800000 -1.400000 0.085000
			CHANNELS 3 Zrotation Yrotation Xrotation
			JOINT LeftLeg
			{
				OFFSET 2.215000 -6.000000 0.000000
				CHANNELS 3 Zrotation Yrotation Xrotation
				JOINT LeftFoot
				{
					OFFSET 2.500000 -6.900000 0.000000
					CHANNELS 3 Zrotation Yrotation Xrotation
					JOINT LeftToeBase
					{
						OFFSET 0.200000 -0.500000 1.950000
						CHANNELS 3 Zrotation Yrotation Xrotation
						End Site
						{
							OFFSET 0.000000 0.000000 0.000000
						}
					}
				}
			}
		}
	}
	JOINT RHipJoint
	{
		OFFSET 0.000000 0.000000 0.000000
		CHANNELS 3 Zrotation Yrotation Xrotation
		JOINT RightUpLeg
		{
			OFFSET -1.800000 -1.400000 0.085000
			CHANNELS 3 Zrotation Yrotation Xrotation
			JOINT RightLeg
			{
				OFFSET -2.215000 -6.000000 0.000000
				CHANNELS 3 Zrotation Yrotation Xrotation
				JOINT RightFoot
				{
					OFFSET -2.500000 -6.900000 0.000000
					CHANNELS 3 Zrotation Yrotation Xrotation
					JOINT RightToeBase
					{
						OFFSET -0.200000 -0.500000 1.950000
						CHANNELS 3 Zrotation Yrotation Xrotation
						End Site
						{
							OFFSET 0.000000 0.000000 0.000000
						}
					}
				}
			}
		}
	}
	JOINT LowerBack
	{
		OFFSET 0.000000 0.000000 0.000000
		CHANNELS 3 Zrotation Yrotation Xrotation
		JOINT Spine
		{
			OFFSET -0.087000 1.940000 -0.288900
			CHANNELS 3 Zrotation Yrotation Xrotation
			JOINT Spine1
			{
				OFFSET 0.000000 1.950000 0.060000
				CHANNELS 3 Zrotation Yrotation Xrotation
				JOINT Neck
				{
					OFFSET 0.000000 0.000000 0.000000
					CHANNELS 3 Zrotation Yrotation Xrotation
					JOINT Neck1
					{
						OFFSET 0.000000 1.600000 0.340000
						CHANNELS 3 Zrotation Yrotation Xrotation
						JOINT Head
						{
							OFFSET 0.000000 1.667000 -0.240000
							CHANNELS 3 Zrotation Yrotation Xrotation
							End Site
							{
								OFFSET 0.000000 0.000000 0.000000
							}
						}
					}
				}
				JOINT LeftShoulder
				{
					OFFSET 0.000000 0.000000 0.000000
					CHANNELS 3 Zrotation Yrotation Xrotation
					JOINT LeftArm
					{
						OFFSET 2.700000 1.550000 -0.730000
						CHANNELS 3 Zrotation Yrotation Xrotation
						JOINT LeftForeArm
						{
							OFFSET 5.450000 0.000000 0.000000
							CHANNELS 3 Zrotation Yrotation Xrotation
							JOINT LeftHand
							{
								OFFSET 3.450000 0.000000 0.000000
								CHANNELS 3 Zrotation Yrotation Xrotation
								JOINT LeftHandIndex1
								{
									OFFSET 0.750000 0.000000 0.000000
									CHANNELS 3 Zrotation Yrotation Xrotation
									End Site
									{
										OFFSET 0.000000 0.000000 0.000000
									}
								}
							}
						}
					}
				}
				JOINT RightShoulder
				{
					OFFSET 0.000000 0.000000 0.000000
					CHANNELS 3 Zrotation Yrotation Xrotation
					JOINT RightArm
					{
						OFFSET -2.700000 1.550000 -0.730000
						CHANNELS 3 Zrotation Yrotation Xrotation
						JOINT RightForeArm
						{
							OFFSET -5.450000 0.000000 0.000000
							CHANNELS 3 Zrotation Yrotation Xrotation
							JOINT RightHand
							{
								OFFSET -3.450000 0.000000 0.000000
								CHANNELS 3 Zrotation Yrotation Xrotation
								JOINT RightHandIndex1
								{
									OFFSET -0.750000 0.000000 0.000000
									CHANNELS 3 Zrotation Yrotation Xrotation
									End Site
									{
										OFFSET 0.000000 0.000000 0.000000
									}
								}
							}
						}
					}
				}
			}
		}
	}
}
MOTION
Frames: 8
Frame Time: 0.016667
1.133960 12.682850 -1.099570 -67.719615 -50.618329 43.536081 -16.227425 8.501945 5.309301 -46.468885 -36.472367 -77.279053 101.319143 -6.697017 26.302500 1.922271 13.902808 -0.381617 0.374780 -0.004900 0.886700 18.263880 -5.353578 5.906158 -48.668152 14.758843 -25.613728 122.753731 -29.767376 13.560591 -2.353300 -9.995480 0.825715 -0.174170 -0.332540 0.579850 -2.751295 -2.219808 -10.706531 -11.358175 21.374614 49.985418 -15.633851 16.493279 7.941811 12.877077 0.874396 -14.627113 3.397596 9.211176 60.499043 -21.150380 16.463240 -15.253040 -11.824998 -29.924654 13.520700 -22.415084 -7.032040 -9.099412 42.053884 -16.871434 -8.424350 -3.990390 3.207033 0.711540 0.035020 0.318560 -0.501990 -15.041176 41.470921 -8.271913 2.938834 34.853290 -17.328188 -28.150308 83.773707 -27.015640 2.021528 -1.225108 0.096630 -0.407890 0.139900 -0.423550 
1.021310 12.622130 -1.082340 -63.833685 -54.909282 41.578129 -16.375747 8.390084 5.116385 -46.514664 -39.444564 -79.301684 102.989661 -6.143990 26.762589 2.110131 13.903674 -0.211482 0.410280 0.150040 0.854930 18.238153 -4.946047 6.081980 -53.645816 13.325223 -23.004693 127.020761 -26.349938 9.742249 -2.202162 -9.329946 1.127271 -0.136490 -0.089000 0.532860 -2.539093 -2.667555 -10.609127 -17.601576 22.505175 42.508819 -13.111105 16.020201 10.987523 11.855027 0.245132 -13.407255 2.929385 11.199065 57.405601 -15.767350 16.874860 -12.568930 -8.609536 -27.509101 13.241637 -25.494760 -7.089056 -5.136278 31.504733 -9.970964 -4.159658 -4.056254 3.118920 0.519840 0.160250 0.241050 -0.388690 -15.942543 38.299287 -7.317470 7.048760 36.330804 -17.071515 -66.750912 85.297123 -56.950355 1.764856 1.289859 0.133150 -0.236570 0.081060 -0.273880 
0.942790 12.591680 -1.030240 -64.739710 -61.810271 40.977034 -16.349657 8.705867 4.529605 -42.429097 -37.518545 -83.989398 102.089018 -4.062760 26.404630 2.242592 13.842068 -0.051939 0.301410 0.059110 0.717840 18.353243 -4.442914 6.643852 -60.390768 14.040532 -19.329819 130.010003 -17.122749 5.103293 -1.800012 -8.061536 1.629399 -0.224180 0.167980 0.474660 -2.394144 -3.291379 -10.564021 -24.361057 24.545090 36.730353 -10.982011 15.515403 13.375653 10.115530 -0.042505 -14.537278 2.017473 13.882242 54.960361 -10.358720 19.175190 -5.779280 -8.357408 -24.654165 12.420286 -27.541485 -3.941735 -3.623186 24.848733 -7.918340 -2.445040 -4.134078 3.049700 0.388060 0.289240 0.086840 -0.313280 -12.837343 36.408470 -1.711361 7.138088 35.232234 -10.818973 -103.937260 69.279946 -84.379239 2.490308 1.443512 0.096090 -0.149800 0.101490 -0.175820 
0.851490 12.525650 -0.928700 -73.547028 -66.459308 45.304115 -16.027632 8.658731 4.216491 -32.837633 -33.164156 -89.109198 109.186380 -8.912234 30.260974 2.631248 14.832979 -0.099672 0.324010 0.092360 0.689400 18.692256 -4.308158 6.930915 -61.525432 16.298153 -16.121221 132.582069 -11.218294 2.761181 -1.651497 -6.984902 1.985837 -0.159870 0.258910 0.393690 -2.516908 -2.409948 -10.703396 -22.167595 22.758367 37.108666 -14.479652 16.119586 14.479972 9.986073 -0.049050 -15.169578 1.949610 13.970095 55.356803 -6.895180 18.043650 -5.519460 -9.022111 -23.049252 11.852650 -26.480681 -2.303568 -1.445744 15.550229 -0.252473 -0.630002 -4.202832 2.809455 0.394980 0.248470 0.114940 -0.165290 -12.260638 34.262554 0.619292 11.025704 35.524615 -9.854274 -110.481956 63.305652 -91.536453 2.634630 0.588100 0.027740 0.087700 0.071020 -0.147190 
0.800520 12.465680 -0.794880 -80.539156 -68.733975 49.267974 -15.873349 8.530462 4.784304 -23.417198 -30.324190 -90.916951 114.700230 -10.777426 29.837813 2.719451 15.167219 -0.075200 0.324030 0.086430 0.534680 18.767063 -5.099414 6.164904 -63.689072 15.926886 -19.752856 132.626266 -26.237936 6.264370 -2.093611 -8.709108 1.511459 -0.032930 0.318070 0.253240 -2.779861 -1.525647 -10.755163 -18.236111 18.710869 38.105557 -17.608918 15.206263 15.930173 9.586939 0.283203 -17.281046 1.294695 12.521538 58.216432 -0.278670 12.957180 -1.998000 -9.843165 -23.618312 11.539005 -27.298042 -0.284562 -0.797442 9.190756 4.391961 -0.361275 -4.163626 2.614942 0.473410 0.189760 0.064370 -0.038150 -10.615030 33.797319 5.194864 16.066792 34.786398 -11.736960 -110.758784 63.019261 -94.848726 2.523990 0.338295 -0.133070 0.250830 0.059730 -0.152460 
0.856820 12.443210 -0.645420 -83.763683 -69.803116 49.414287 -15.953371 8.637082 5.853299 -16.778452 -28.618908 -89.726871 113.874475 -12.942180 30.990971 2.362388 15.726719 -0.425587 0.270940 -0.054070 0.366990 18.516261 -6.851395 4.343335 -63.756503 16.244296 -21.309727 118.866050 -51.556197 19.302159 -2.243179 -10.262634 0.917236 0.063790 0.463550 0.294350 -3.118198 -1.336144 -10.346173 -15.128087 14.035266 40.911113 -19.212985 13.604285 19.896220 8.916609 -1.660377 -17.868616 -4.495663 13.360890 57.364812 7.155830 5.276380 -4.684580 -10.840452 -25.597139 11.557600 -27.807477 -0.142506 0.129593 4.283101 7.117359 -1.055226 -4.266498 2.455662 0.657030 0.202970 -0.054640 -0.134760 -8.144799 36.070212 7.116997 16.822417 31.287547 -17.050049 -109.998854 61.244809 -91.490394 2.317627 0.287505 -0.317330 0.321830 0.298610 -0.179570 
0.879510 12.392440 -0.508860 -90.624877 -70.691302 52.879706 -16.061604 7.907874 6.577833 -2.524788 -22.906993 -87.691946 114.187185 -24.922410 43.504968 2.813829 16.937333 -0.631245 0.516040 0.242090 0.478550 18.482926 -6.719534 4.236724 -65.295366 14.679659 -26.339352 107.179982 -58.288656 28.626284 -2.398497 -10.242961 0.879893 0.195260 0.332260 0.273820 -3.351298 -1.396482 -10.749302 -11.742976 10.143505 44.799617 -18.765895 12.433685 21.595104 8.204602 -2.994846 -18.702155 -9.907059 13.128837 58.573907 8.579280 1.444050 -10.850400 -13.276296 -27.285632 11.150300 -29.329931 -1.476624 0.451837 3.334943 8.742440 -1.110763 -4.055291 2.466732 0.733140 0.019030 0.116490 -0.007840 -4.156022 37.793243 8.590232 18.578243 28.201401 -21.276140 -106.702739 63.613000 -88.811383 2.264808 0.490918 -0.218340 0.415600 0.150520 -0.128930 
0.965110 12.300250 -0.438300 -101.146688 -72.544959 63.004740 -16.345694 6.618159 7.264950 17.374314 -15.352807 -85.551316 91.019955 -36.705263 77.636462 3.976975 20.374295 -1.222367 0.820110 0.643950 0.710250 18.431702 -5.335447 5.021478 -65.272648 10.202366 -37.590625 87.439396 -64.752170 45.923543 -2.800387 -11.073656 0.676700 0.274080 0.002500 0.250830 -3.128113 -2.350947 -11.609335 -14.177517 9.842026 46.574065 -13.272311 11.928491 21.436184 6.003285 -2.041252 -20.445498 -10.705604 10.490340 59.982744 7.785810 0.927070 -14.334260 -10.865887 -30.859014 11.300162 -34.494273 -5.095389 0.453449 3.144390 11.560431 -0.682961 -3.768217 2.714157 0.698730 -0.195960 0.360340 0.108740 -1.922778 40.350848 11.761022 25.228425 18.441492 -28.882077 -103.779073 64.109356 -85.525877 2.363128 0.187474 0.040100 0.287240 -0.172780 -0.088640 
